<?xml version="1.0" encoding="UTF-8"?>
<svg id="Layer_1" xmlns="http://www.w3.org/2000/svg" version="1.1" xmlns:xlink="http://www.w3.org/1999/xlink" viewBox="0 0 445.43 296.52">
  <!-- Generator: Adobe Illustrator 30.0.0, SVG Export Plug-In . SVG Version: 2.1.1 Build 123)  -->
  <defs>
    <style>
      .st0 {
        stroke: #e6e4be;
      }

      .st0, .st1, .st2 {
        fill: none;
      }

      .st0, .st2 {
        stroke-linecap: round;
        stroke-linejoin: round;
        stroke-width: 4px;
      }

      .st3 {
        fill: #fff;
      }

      .st3, .st4, .st5, .st6 {
        stroke-miterlimit: 10;
      }

      .st3, .st4, .st6 {
        stroke: #e0e0e0;
      }

      .st3, .st5 {
        stroke-width: 2px;
      }

      .st7 {
        fill: #964b53;
      }

      .st4 {
        fill: url(#linear-gradient);
      }

      .st4, .st6 {
        stroke-width: 5px;
      }

      .st5 {
        fill: #e99823;
        stroke: #9ea0a1;
      }

      .st2 {
        stroke: #fcffc9;
      }

      .st8 {
        clip-path: url(#clippath-1);
      }

      .st9 {
        fill: url(#radial-gradient1);
        isolation: isolate;
        opacity: .53;
      }

      .st10 {
        fill: #783a41;
      }

      .st11 {
        fill: url(#radial-gradient2);
      }

      .st6 {
        fill: url(#radial-gradient);
      }

      .st12 {
        clip-path: url(#clippath);
      }
    </style>
    <linearGradient id="linear-gradient" x1="291.23" y1="1024.03" x2="146.39" y2="879.2" gradientTransform="translate(0 -738)" gradientUnits="userSpaceOnUse">
      <stop offset="0" stop-color="#fff"/>
      <stop offset="0" stop-color="#f5f5f5"/>
      <stop offset=".03" stop-color="#c7c7c7"/>
      <stop offset=".06" stop-color="#9c9c9c"/>
      <stop offset=".09" stop-color="#777"/>
      <stop offset=".12" stop-color="#565656"/>
      <stop offset=".16" stop-color="#3b3b3b"/>
      <stop offset=".2" stop-color="#252525"/>
      <stop offset=".25" stop-color="#141414"/>
      <stop offset=".31" stop-color="#080808"/>
      <stop offset=".4" stop-color="#010101"/>
      <stop offset=".64" stop-color="#000"/>
    </linearGradient>
    <radialGradient id="radial-gradient" cx="232.71" cy="1302.04" fx="232.71" fy="1302.04" r="196.41" gradientTransform="translate(-13.68 -690.03) scale(.99 .63)" gradientUnits="userSpaceOnUse">
      <stop offset=".05" stop-color="#fff"/>
      <stop offset=".3" stop-color="#c1c1c1"/>
      <stop offset=".85" stop-color="#2a2a2a"/>
      <stop offset="1" stop-color="#000"/>
    </radialGradient>
    <clipPath id="clippath">
      <ellipse class="st1" cx="218.93" cy="145.17" rx="164.31" ry="105.61"/>
    </clipPath>
    <radialGradient id="radial-gradient1" cx="218.93" cy="882.9" fx="103.99" fy="936.12" r="163.52" gradientTransform="translate(0 -738)" gradientUnits="userSpaceOnUse">
      <stop offset="0" stop-color="#fff"/>
      <stop offset="0" stop-color="#ffe5c2"/>
      <stop offset="0" stop-color="#ffa72a"/>
      <stop offset=".3" stop-color="#b6771e"/>
      <stop offset=".99" stop-color="#030200"/>
      <stop offset="1" stop-color="#000"/>
    </radialGradient>
    <clipPath id="clippath-1">
      <path class="st1" d="M357.88,171.94c-1.53,11.56-6.62,19.37-7.85,21.19-4.86,7.19-12.19,13.59-26.68,19.62-14.08,5.86-56.55,23.52-71.41,4.71-9.39-11.89-5.45-35.41,6.28-46.42,7.92-7.43,13.3-3.75,26.68-12.43,16.29-10.57,13.85-20.25,26.12-25.47,13.69-5.82,34.22-1.4,42.94,11.73,6.26,9.43,4.75,20.81,3.92,27.07ZM163.14,236.96c1.97,1.02,3.51-1.28,8.91-2.24,8.63-1.53,14.45,2.61,20.2,4.34,12.55,3.79,27.44-3.08,35.05-9.94,16.64-15,16.26-45.97,7.17-50.77-5.74-3.04-10.83,6.56-31.23,12.22-17.36,4.82-22.26.25-30.35,6.12-14.46,10.48-15.6,37.25-9.76,40.27h0ZM267.05,60.68c-6.57-3.13-12.41-6.42-20.34-5.44-2.26.28-10.24,1.27-14.71,8.04-.46.69-3.53,5.51-2.62,11.74.97,6.62,5.83,10.61,10.72,14.51,5.28,4.21,11.67,7.6,20.14,10.02,12.83,3.66,26.34,7.52,37.17,0,6.28-4.36,13.22-13.63,10.96-21.09-2.56-8.43-13.9-4.74-41.33-17.79h.01Z"/>
    </clipPath>
    <radialGradient id="radial-gradient2" cx="114.08" cy="813.02" fx="101.55" fy="821.93" r="31.72" gradientTransform="translate(0 -738)" gradientUnits="userSpaceOnUse">
      <stop offset="0" stop-color="#fff78f"/>
      <stop offset="1" stop-color="#dfa100"/>
    </radialGradient>
  </defs>
  <g id="Layer_2">
    <path class="st4" d="M76.07,211.52c5.78,7.5,56.47,71,143.99,70.98,85.33-.02,135.48-60.41,141.72-68.2"/>
    <ellipse class="st6" cx="217.61" cy="130.62" rx="196.46" ry="128.12"/>
    <ellipse class="st5" cx="218.93" cy="144.9" rx="164.31" ry="105.89"/>
  </g>
  <g id="ramen_bottom">
    <g class="st12">
      <g>
        <g>
          <path class="st0" d="M-.46,272.59c18.27,0,18.27,14,36.54,14s18.27-14,36.54-14,18.27,14,36.54,14,18.27-14,36.54-14,18.27,14,36.53,14,18.27-14,36.54-14,18.27,14,36.54,14,18.27-14,36.54-14,18.27,14,36.54,14,18.27-14,36.54-14,18.27,14,36.55,14,18.27-14,36.55-14"/>
          <path class="st2" d="M.13,282.52c18.27,0,18.27,14,36.54,14s18.27-14,36.54-14,18.27,14,36.54,14,18.27-14,36.54-14,18.27,14,36.53,14,18.27-14,36.54-14,18.27,14,36.54,14,18.27-14,36.54-14,18.27,14,36.54,14,18.27-14,36.54-14,18.27,14,36.55,14,18.27-14,36.55-14"/>
        </g>
        <g>
          <path class="st0" d="M-.47,260.44c18.27,0,18.27,14,36.54,14s18.27-14,36.54-14,18.27,14,36.54,14,18.27-14,36.54-14,18.27,14,36.53,14,18.27-14,36.54-14,18.27,14,36.54,14,18.27-14,36.54-14,18.27,14,36.54,14,18.27-14,36.54-14,18.27,14,36.55,14,18.27-14,36.55-14"/>
          <path class="st2" d="M.12,270.37c18.27,0,18.27,14,36.54,14s18.27-14,36.54-14,18.27,14,36.54,14,18.27-14,36.54-14,18.27,14,36.53,14,18.27-14,36.54-14,18.27,14,36.54,14,18.27-14,36.54-14,18.27,14,36.54,14,18.27-14,36.54-14,18.27,14,36.55,14,18.27-14,36.55-14"/>
        </g>
        <g>
          <path class="st0" d="M-.48,248.28c18.27,0,18.27,14,36.54,14s18.27-14,36.54-14,18.27,14,36.54,14,18.27-14,36.54-14,18.27,14,36.53,14,18.27-14,36.54-14,18.27,14,36.54,14,18.27-14,36.54-14,18.27,14,36.54,14,18.27-14,36.54-14,18.27,14,36.55,14,18.27-14,36.55-14"/>
          <path class="st2" d="M.11,258.22c18.27,0,18.27,14,36.54,14s18.27-14,36.54-14,18.27,14,36.54,14,18.27-14,36.54-14,18.27,14,36.53,14,18.27-14,36.54-14,18.27,14,36.54,14,18.27-14,36.54-14,18.27,14,36.54,14,18.27-14,36.54-14,18.27,14,36.55,14,18.27-14,36.55-14"/>
        </g>
        <g>
          <path class="st0" d="M-.5,236.13c18.27,0,18.27,14,36.54,14s18.27-14,36.54-14,18.27,14,36.54,14,18.27-14,36.54-14,18.27,14,36.53,14,18.27-14,36.54-14,18.27,14,36.54,14,18.27-14,36.54-14,18.27,14,36.54,14,18.27-14,36.54-14,18.27,14,36.55,14,18.27-14,36.55-14"/>
          <path class="st2" d="M.09,246.07c18.27,0,18.27,14,36.54,14s18.27-14,36.54-14,18.27,14,36.54,14,18.27-14,36.54-14,18.27,14,36.53,14,18.27-14,36.54-14,18.27,14,36.54,14,18.27-14,36.54-14,18.27,14,36.54,14,18.27-14,36.54-14,18.27,14,36.55,14,18.27-14,36.55-14"/>
        </g>
        <g>
          <path class="st0" d="M-.51,223.98c18.27,0,18.27,14,36.54,14s18.27-14,36.54-14,18.27,14,36.54,14,18.27-14,36.54-14,18.27,14,36.53,14,18.27-14,36.54-14,18.27,14,36.54,14,18.27-14,36.54-14,18.27,14,36.54,14,18.27-14,36.54-14,18.27,14,36.55,14,18.27-14,36.55-14"/>
          <path class="st2" d="M.08,233.92c18.27,0,18.27,14,36.54,14s18.27-14,36.54-14,18.27,14,36.54,14,18.27-14,36.54-14,18.27,14,36.53,14,18.27-14,36.54-14,18.27,14,36.54,14,18.27-14,36.54-14,18.27,14,36.54,14,18.27-14,36.54-14,18.27,14,36.55,14,18.27-14,36.55-14"/>
        </g>
        <g>
          <path class="st0" d="M-.52,211.83c18.27,0,18.27,14,36.54,14s18.27-14,36.54-14,18.27,14,36.54,14,18.27-14,36.54-14,18.27,14,36.53,14,18.27-14,36.54-14,18.27,14,36.54,14,18.27-14,36.54-14,18.27,14,36.54,14,18.27-14,36.54-14,18.27,14,36.55,14,18.27-14,36.55-14"/>
          <path class="st2" d="M.07,221.77c18.27,0,18.27,14,36.54,14s18.27-14,36.54-14,18.27,14,36.54,14,18.27-14,36.54-14,18.27,14,36.53,14,18.27-14,36.54-14,18.27,14,36.54,14,18.27-14,36.54-14,18.27,14,36.54,14,18.27-14,36.54-14,18.27,14,36.55,14,18.27-14,36.55-14"/>
        </g>
        <g>
          <path class="st0" d="M-.54,199.68c18.27,0,18.27,14,36.54,14s18.27-14,36.54-14,18.27,14,36.54,14,18.27-14,36.54-14,18.27,14,36.53,14,18.27-14,36.54-14,18.27,14,36.54,14,18.27-14,36.54-14,18.27,14,36.54,14,18.27-14,36.54-14,18.27,14,36.55,14,18.27-14,36.55-14"/>
          <path class="st2" d="M.05,209.62c18.27,0,18.27,14,36.54,14s18.27-14,36.54-14,18.27,14,36.54,14,18.27-14,36.54-14,18.27,14,36.53,14,18.27-14,36.54-14,18.27,14,36.54,14,18.27-14,36.54-14,18.27,14,36.54,14,18.27-14,36.54-14,18.27,14,36.55,14,18.27-14,36.55-14"/>
        </g>
        <g>
          <path class="st0" d="M-.55,187.53c18.27,0,18.27,14,36.54,14s18.27-14,36.54-14,18.27,14,36.54,14,18.27-14,36.54-14,18.27,14,36.53,14,18.27-14,36.54-14,18.27,14,36.54,14,18.27-14,36.54-14,18.27,14,36.54,14,18.27-14,36.54-14,18.27,14,36.55,14,18.27-14,36.55-14"/>
          <path class="st2" d="M.04,197.47c18.27,0,18.27,14,36.54,14s18.27-14,36.54-14,18.27,14,36.54,14,18.27-14,36.54-14,18.27,14,36.53,14,18.27-14,36.54-14,18.27,14,36.54,14,18.27-14,36.54-14,18.27,14,36.54,14,18.27-14,36.54-14,18.27,14,36.55,14,18.27-14,36.55-14"/>
        </g>
        <g>
          <path class="st0" d="M-.56,175.38c18.27,0,18.27,14,36.54,14s18.27-14,36.54-14,18.27,14,36.54,14,18.27-14,36.54-14,18.27,14,36.53,14,18.27-14,36.54-14,18.27,14,36.54,14,18.27-14,36.54-14,18.27,14,36.54,14,18.27-14,36.54-14,18.27,14,36.55,14,18.27-14,36.55-14"/>
          <path class="st2" d="M.03,185.32c18.27,0,18.27,14,36.54,14s18.27-14,36.54-14,18.27,14,36.54,14,18.27-14,36.54-14,18.27,14,36.53,14,18.27-14,36.54-14,18.27,14,36.54,14,18.27-14,36.54-14,18.27,14,36.54,14,18.27-14,36.54-14,18.27,14,36.55,14,18.27-14,36.55-14"/>
        </g>
        <g>
          <path class="st0" d="M-.58,163.23c18.27,0,18.27,14,36.54,14s18.27-14,36.54-14,18.27,14,36.54,14,18.27-14,36.54-14,18.27,14,36.53,14,18.27-14,36.54-14,18.27,14,36.54,14,18.27-14,36.54-14,18.27,14,36.54,14,18.27-14,36.54-14,18.27,14,36.55,14,18.27-14,36.55-14"/>
          <path class="st2" d="M0,173.17c18.27,0,18.27,14,36.54,14s18.27-14,36.54-14,18.27,14,36.54,14,18.27-14,36.54-14,18.27,14,36.53,14,18.27-14,36.54-14,18.27,14,36.54,14,18.27-14,36.54-14,18.27,14,36.54,14,18.27-14,36.54-14,18.27,14,36.55,14,18.27-14,36.55-14"/>
        </g>
        <g>
          <path class="st0" d="M-.59,151.08c18.27,0,18.27,14,36.54,14s18.27-14,36.54-14,18.27,14,36.54,14,18.27-14,36.54-14,18.27,14,36.53,14,18.27-14,36.54-14,18.27,14,36.54,14,18.27-14,36.54-14,18.27,14,36.54,14,18.27-14,36.54-14,18.27,14,36.55,14,18.27-14,36.55-14"/>
          <path class="st2" d="M0,161.02c18.27,0,18.27,14,36.54,14s18.27-14,36.54-14,18.27,14,36.54,14,18.27-14,36.54-14,18.27,14,36.53,14,18.27-14,36.54-14,18.27,14,36.54,14,18.27-14,36.54-14,18.27,14,36.54,14,18.27-14,36.54-14,18.27,14,36.55,14,18.27-14,36.55-14"/>
        </g>
        <g>
          <path class="st0" d="M-.6,138.93c18.27,0,18.27,14,36.54,14s18.27-14,36.54-14,18.27,14,36.54,14,18.27-14,36.54-14,18.27,14,36.53,14,18.27-14,36.54-14,18.27,14,36.54,14,18.27-14,36.54-14,18.27,14,36.54,14,18.27-14,36.54-14,18.27,14,36.55,14,18.27-14,36.55-14"/>
          <path class="st2" d="M-.01,148.87c18.27,0,18.27,14,36.54,14s18.27-14,36.54-14,18.27,14,36.54,14,18.27-14,36.54-14,18.27,14,36.53,14,18.27-14,36.54-14,18.27,14,36.54,14,18.27-14,36.54-14,18.27,14,36.54,14,18.27-14,36.54-14,18.27,14,36.55,14,18.27-14,36.55-14"/>
        </g>
        <g>
          <path class="st0" d="M-.62,126.78c18.27,0,18.27,14,36.54,14s18.27-14,36.54-14,18.27,14,36.54,14,18.27-14,36.54-14,18.27,14,36.53,14,18.27-14,36.54-14,18.27,14,36.54,14,18.27-14,36.54-14,18.27,14,36.54,14,18.27-14,36.54-14,18.27,14,36.55,14,18.27-14,36.55-14"/>
          <path class="st2" d="M-.03,136.72c18.27,0,18.27,14,36.54,14s18.27-14,36.54-14,18.27,14,36.54,14,18.27-14,36.54-14,18.27,14,36.53,14,18.27-14,36.54-14,18.27,14,36.54,14,18.27-14,36.54-14,18.27,14,36.54,14,18.27-14,36.54-14,18.27,14,36.55,14,18.27-14,36.55-14"/>
        </g>
        <g>
          <path class="st0" d="M-.63,114.63c18.27,0,18.27,14,36.54,14s18.27-14,36.54-14,18.27,14,36.54,14,18.27-14,36.54-14,18.27,14,36.53,14,18.27-14,36.54-14,18.27,14,36.54,14,18.27-14,36.54-14,18.27,14,36.54,14,18.27-14,36.54-14,18.27,14,36.55,14,18.27-14,36.55-14"/>
          <path class="st2" d="M-.04,124.57c18.27,0,18.27,14,36.54,14s18.27-14,36.54-14,18.27,14,36.54,14,18.27-14,36.54-14,18.27,14,36.53,14,18.27-14,36.54-14,18.27,14,36.54,14,18.27-14,36.54-14,18.27,14,36.54,14,18.27-14,36.54-14,18.27,14,36.55,14,18.27-14,36.55-14"/>
        </g>
        <g>
          <path class="st0" d="M-.64,102.48c18.27,0,18.27,14,36.54,14s18.27-14,36.54-14,18.27,14,36.54,14,18.27-14,36.54-14,18.27,14,36.53,14,18.27-14,36.54-14,18.27,14,36.54,14,18.27-14,36.54-14,18.27,14,36.54,14,18.27-14,36.54-14,18.27,14,36.55,14,18.27-14,36.55-14"/>
          <path class="st2" d="M-.05,112.42c18.27,0,18.27,14,36.54,14s18.27-14,36.54-14,18.27,14,36.54,14,18.27-14,36.54-14,18.27,14,36.53,14,18.27-14,36.54-14,18.27,14,36.54,14,18.27-14,36.54-14,18.27,14,36.54,14,18.27-14,36.54-14,18.27,14,36.55,14,18.27-14,36.55-14"/>
        </g>
        <g>
          <path class="st0" d="M-.66,90.33c18.27,0,18.27,14,36.54,14s18.27-14,36.54-14,18.27,14,36.54,14,18.27-14,36.54-14,18.27,14,36.53,14,18.27-14,36.54-14,18.27,14,36.54,14,18.27-14,36.54-14,18.27,14,36.54,14,18.27-14,36.54-14,18.27,14,36.55,14,18.27-14,36.55-14"/>
          <path class="st2" d="M-.07,100.27c18.27,0,18.27,14,36.54,14s18.27-14,36.54-14,18.27,14,36.54,14,18.27-14,36.54-14,18.27,14,36.53,14,18.27-14,36.54-14,18.27,14,36.54,14,18.27-14,36.54-14,18.27,14,36.54,14,18.27-14,36.54-14,18.27,14,36.55,14,18.27-14,36.55-14"/>
        </g>
        <g>
          <path class="st0" d="M-.67,78.18c18.27,0,18.27,14,36.54,14s18.27-14,36.54-14,18.27,14,36.54,14,18.27-14,36.54-14,18.27,14,36.53,14,18.27-14,36.54-14,18.27,14,36.54,14,18.27-14,36.54-14,18.27,14,36.54,14,18.27-14,36.54-14,18.27,14,36.55,14,18.27-14,36.55-14"/>
          <path class="st2" d="M-.08,88.12c18.27,0,18.27,14,36.54,14s18.27-14,36.54-14,18.27,14,36.54,14,18.27-14,36.54-14,18.27,14,36.53,14,18.27-14,36.54-14,18.27,14,36.54,14,18.27-14,36.54-14,18.27,14,36.54,14,18.27-14,36.54-14,18.27,14,36.55,14,18.27-14,36.55-14"/>
        </g>
        <g>
          <path class="st0" d="M-.68,66.03c18.27,0,18.27,14,36.54,14s18.27-14,36.54-14,18.27,14,36.54,14,18.27-14,36.54-14,18.27,14,36.53,14,18.27-14,36.54-14,18.27,14,36.54,14,18.27-14,36.54-14,18.27,14,36.54,14,18.27-14,36.54-14,18.27,14,36.55,14,18.27-14,36.55-14"/>
          <path class="st2" d="M-.09,75.97c18.27,0,18.27,14,36.54,14s18.27-14,36.54-14,18.27,14,36.54,14,18.27-14,36.54-14,18.27,14,36.53,14,18.27-14,36.54-14,18.27,14,36.54,14,18.27-14,36.54-14,18.27,14,36.54,14,18.27-14,36.54-14,18.27,14,36.55,14,18.27-14,36.55-14"/>
        </g>
        <g>
          <path class="st0" d="M-.7,53.88c18.27,0,18.27,14,36.54,14s18.27-14,36.54-14,18.27,14,36.54,14,18.27-14,36.54-14,18.27,14,36.53,14,18.27-14,36.54-14,18.27,14,36.54,14,18.27-14,36.54-14,18.27,14,36.54,14,18.27-14,36.54-14,18.27,14,36.55,14,18.27-14,36.55-14"/>
          <path class="st2" d="M-.11,63.82c18.27,0,18.27,14,36.54,14s18.27-14,36.54-14,18.27,14,36.54,14,18.27-14,36.54-14,18.27,14,36.53,14,18.27-14,36.54-14,18.27,14,36.54,14,18.27-14,36.54-14,18.27,14,36.54,14,18.27-14,36.54-14,18.27,14,36.55,14,18.27-14,36.55-14"/>
        </g>
        <g>
          <path class="st0" d="M-.71,41.73c18.27,0,18.27,14,36.54,14s18.27-14,36.54-14,18.27,14,36.54,14,18.27-14,36.54-14,18.27,14,36.53,14,18.27-14,36.54-14,18.27,14,36.54,14,18.27-14,36.54-14,18.27,14,36.54,14,18.27-14,36.54-14,18.27,14,36.55,14,18.27-14,36.55-14"/>
          <path class="st2" d="M-.12,51.67c18.27,0,18.27,14,36.54,14s18.27-14,36.54-14,18.27,14,36.54,14,18.27-14,36.54-14,18.27,14,36.53,14,18.27-14,36.54-14,18.27,14,36.54,14,18.27-14,36.54-14,18.27,14,36.54,14,18.27-14,36.54-14,18.27,14,36.55,14,18.27-14,36.55-14"/>
        </g>
        <g>
          <path class="st0" d="M-.72,29.58c18.27,0,18.27,14,36.54,14s18.27-14,36.54-14,18.27,14,36.54,14,18.27-14,36.54-14,18.27,14,36.53,14,18.27-14,36.54-14,18.27,14,36.54,14,18.27-14,36.54-14,18.27,14,36.54,14,18.27-14,36.54-14,18.27,14,36.55,14,18.27-14,36.55-14"/>
          <path class="st2" d="M-.13,39.52c18.27,0,18.27,14,36.54,14s18.27-14,36.54-14,18.27,14,36.54,14,18.27-14,36.54-14,18.27,14,36.53,14,18.27-14,36.54-14,18.27,14,36.54,14,18.27-14,36.54-14,18.27,14,36.54,14,18.27-14,36.54-14,18.27,14,36.55,14,18.27-14,36.55-14"/>
        </g>
        <g>
          <path class="st0" d="M-.74,17.43c18.27,0,18.27,14,36.54,14s18.27-14,36.54-14,18.27,14,36.54,14,18.27-14,36.54-14,18.27,14,36.53,14,18.27-14,36.54-14,18.27,14,36.54,14,18.27-14,36.54-14,18.27,14,36.54,14,18.27-14,36.54-14,18.27,14,36.55,14,18.27-14,36.55-14"/>
          <path class="st2" d="M-.15,27.37c18.27,0,18.27,14,36.54,14s18.27-14,36.54-14,18.27,14,36.54,14,18.27-14,36.54-14,18.27,14,36.53,14,18.27-14,36.54-14,18.27,14,36.54,14,18.27-14,36.54-14,18.27,14,36.54,14,18.27-14,36.54-14,18.27,14,36.55,14,18.27-14,36.55-14"/>
        </g>
        <g>
          <path class="st0" d="M-.75,5.28c18.27,0,18.27,14,36.54,14s18.27-14,36.54-14,18.27,14,36.54,14,18.27-14,36.54-14,18.27,14,36.53,14,18.27-14,36.54-14,18.27,14,36.54,14,18.27-14,36.54-14,18.27,14,36.54,14,18.27-14,36.54-14,18.27,14,36.55,14,18.27-14,36.55-14"/>
          <path class="st2" d="M-.16,15.22c18.27,0,18.27,14,36.54,14s18.27-14,36.54-14,18.27,14,36.54,14,18.27-14,36.54-14,18.27,14,36.53,14,18.27-14,36.54-14,18.27,14,36.54,14,18.27-14,36.54-14,18.27,14,36.54,14,18.27-14,36.54-14,18.27,14,36.55,14,18.27-14,36.55-14"/>
        </g>
      </g>
    </g>
    <ellipse class="st9" cx="218.93" cy="144.9" rx="164.31" ry="105.89"/>
    <g class="st8">
      <g>
        <g>
          <path class="st0" d="M-.46,272.59c18.27,0,18.27,14,36.54,14s18.27-14,36.54-14,18.27,14,36.54,14,18.27-14,36.54-14,18.27,14,36.53,14,18.27-14,36.54-14,18.27,14,36.54,14,18.27-14,36.54-14,18.27,14,36.54,14,18.27-14,36.54-14,18.27,14,36.55,14,18.27-14,36.55-14"/>
          <path class="st2" d="M.13,282.52c18.27,0,18.27,14,36.54,14s18.27-14,36.54-14,18.27,14,36.54,14,18.27-14,36.54-14,18.27,14,36.53,14,18.27-14,36.54-14,18.27,14,36.54,14,18.27-14,36.54-14,18.27,14,36.54,14,18.27-14,36.54-14,18.27,14,36.55,14,18.27-14,36.55-14"/>
        </g>
        <g>
          <path class="st0" d="M-.47,260.44c18.27,0,18.27,14,36.54,14s18.27-14,36.54-14,18.27,14,36.54,14,18.27-14,36.54-14,18.27,14,36.53,14,18.27-14,36.54-14,18.27,14,36.54,14,18.27-14,36.54-14,18.27,14,36.54,14,18.27-14,36.54-14,18.27,14,36.55,14,18.27-14,36.55-14"/>
          <path class="st2" d="M.12,270.37c18.27,0,18.27,14,36.54,14s18.27-14,36.54-14,18.27,14,36.54,14,18.27-14,36.54-14,18.27,14,36.53,14,18.27-14,36.54-14,18.27,14,36.54,14,18.27-14,36.54-14,18.27,14,36.54,14,18.27-14,36.54-14,18.27,14,36.55,14,18.27-14,36.55-14"/>
        </g>
        <g>
          <path class="st0" d="M-.48,248.28c18.27,0,18.27,14,36.54,14s18.27-14,36.54-14,18.27,14,36.54,14,18.27-14,36.54-14,18.27,14,36.53,14,18.27-14,36.54-14,18.27,14,36.54,14,18.27-14,36.54-14,18.27,14,36.54,14,18.27-14,36.54-14,18.27,14,36.55,14,18.27-14,36.55-14"/>
          <path class="st2" d="M.11,258.22c18.27,0,18.27,14,36.54,14s18.27-14,36.54-14,18.27,14,36.54,14,18.27-14,36.54-14,18.27,14,36.53,14,18.27-14,36.54-14,18.27,14,36.54,14,18.27-14,36.54-14,18.27,14,36.54,14,18.27-14,36.54-14,18.27,14,36.55,14,18.27-14,36.55-14"/>
        </g>
        <g>
          <path class="st0" d="M-.5,236.13c18.27,0,18.27,14,36.54,14s18.27-14,36.54-14,18.27,14,36.54,14,18.27-14,36.54-14,18.27,14,36.53,14,18.27-14,36.54-14,18.27,14,36.54,14,18.27-14,36.54-14,18.27,14,36.54,14,18.27-14,36.54-14,18.27,14,36.55,14,18.27-14,36.55-14"/>
          <path class="st2" d="M.09,246.07c18.27,0,18.27,14,36.54,14s18.27-14,36.54-14,18.27,14,36.54,14,18.27-14,36.54-14,18.27,14,36.53,14,18.27-14,36.54-14,18.27,14,36.54,14,18.27-14,36.54-14,18.27,14,36.54,14,18.27-14,36.54-14,18.27,14,36.55,14,18.27-14,36.55-14"/>
        </g>
        <g>
          <path class="st0" d="M-.51,223.98c18.27,0,18.27,14,36.54,14s18.27-14,36.54-14,18.27,14,36.54,14,18.27-14,36.54-14,18.27,14,36.53,14,18.27-14,36.54-14,18.27,14,36.54,14,18.27-14,36.54-14,18.27,14,36.54,14,18.27-14,36.54-14,18.27,14,36.55,14,18.27-14,36.55-14"/>
          <path class="st2" d="M.08,233.92c18.27,0,18.27,14,36.54,14s18.27-14,36.54-14,18.27,14,36.54,14,18.27-14,36.54-14,18.27,14,36.53,14,18.27-14,36.54-14,18.27,14,36.54,14,18.27-14,36.54-14,18.27,14,36.54,14,18.27-14,36.54-14,18.27,14,36.55,14,18.27-14,36.55-14"/>
        </g>
        <g>
          <path class="st0" d="M-.52,211.83c18.27,0,18.27,14,36.54,14s18.27-14,36.54-14,18.27,14,36.54,14,18.27-14,36.54-14,18.27,14,36.53,14,18.27-14,36.54-14,18.27,14,36.54,14,18.27-14,36.54-14,18.27,14,36.54,14,18.27-14,36.54-14,18.27,14,36.55,14,18.27-14,36.55-14"/>
          <path class="st2" d="M.07,221.77c18.27,0,18.27,14,36.54,14s18.27-14,36.54-14,18.27,14,36.54,14,18.27-14,36.54-14,18.27,14,36.53,14,18.27-14,36.54-14,18.27,14,36.54,14,18.27-14,36.54-14,18.27,14,36.54,14,18.27-14,36.54-14,18.27,14,36.55,14,18.27-14,36.55-14"/>
        </g>
        <g>
          <path class="st0" d="M-.54,199.68c18.27,0,18.27,14,36.54,14s18.27-14,36.54-14,18.27,14,36.54,14,18.27-14,36.54-14,18.27,14,36.53,14,18.27-14,36.54-14,18.27,14,36.54,14,18.27-14,36.54-14,18.27,14,36.54,14,18.27-14,36.54-14,18.27,14,36.55,14,18.27-14,36.55-14"/>
          <path class="st2" d="M.05,209.62c18.27,0,18.27,14,36.54,14s18.27-14,36.54-14,18.27,14,36.54,14,18.27-14,36.54-14,18.27,14,36.53,14,18.27-14,36.54-14,18.27,14,36.54,14,18.27-14,36.54-14,18.27,14,36.54,14,18.27-14,36.54-14,18.27,14,36.55,14,18.27-14,36.55-14"/>
        </g>
        <g>
          <path class="st0" d="M-.55,187.53c18.27,0,18.27,14,36.54,14s18.27-14,36.54-14,18.27,14,36.54,14,18.27-14,36.54-14,18.27,14,36.53,14,18.27-14,36.54-14,18.27,14,36.54,14,18.27-14,36.54-14,18.27,14,36.54,14,18.27-14,36.54-14,18.27,14,36.55,14,18.27-14,36.55-14"/>
          <path class="st2" d="M.04,197.47c18.27,0,18.27,14,36.54,14s18.27-14,36.54-14,18.27,14,36.54,14,18.27-14,36.54-14,18.27,14,36.53,14,18.27-14,36.54-14,18.27,14,36.54,14,18.27-14,36.54-14,18.27,14,36.54,14,18.27-14,36.54-14,18.27,14,36.55,14,18.27-14,36.55-14"/>
        </g>
        <g>
          <path class="st0" d="M-.56,175.38c18.27,0,18.27,14,36.54,14s18.27-14,36.54-14,18.27,14,36.54,14,18.27-14,36.54-14,18.27,14,36.53,14,18.27-14,36.54-14,18.27,14,36.54,14,18.27-14,36.54-14,18.27,14,36.54,14,18.27-14,36.54-14,18.27,14,36.55,14,18.27-14,36.55-14"/>
          <path class="st2" d="M.03,185.32c18.27,0,18.27,14,36.54,14s18.27-14,36.54-14,18.27,14,36.54,14,18.27-14,36.54-14,18.27,14,36.53,14,18.27-14,36.54-14,18.27,14,36.54,14,18.27-14,36.54-14,18.27,14,36.54,14,18.27-14,36.54-14,18.27,14,36.55,14,18.27-14,36.55-14"/>
        </g>
        <g>
          <path class="st0" d="M-.58,163.23c18.27,0,18.27,14,36.54,14s18.27-14,36.54-14,18.27,14,36.54,14,18.27-14,36.54-14,18.27,14,36.53,14,18.27-14,36.54-14,18.27,14,36.54,14,18.27-14,36.54-14,18.27,14,36.54,14,18.27-14,36.54-14,18.27,14,36.55,14,18.27-14,36.55-14"/>
          <path class="st2" d="M0,173.17c18.27,0,18.27,14,36.54,14s18.27-14,36.54-14,18.27,14,36.54,14,18.27-14,36.54-14,18.27,14,36.53,14,18.27-14,36.54-14,18.27,14,36.54,14,18.27-14,36.54-14,18.27,14,36.54,14,18.27-14,36.54-14,18.27,14,36.55,14,18.27-14,36.55-14"/>
        </g>
        <g>
          <path class="st0" d="M-.59,151.08c18.27,0,18.27,14,36.54,14s18.27-14,36.54-14,18.27,14,36.54,14,18.27-14,36.54-14,18.27,14,36.53,14,18.27-14,36.54-14,18.27,14,36.54,14,18.27-14,36.54-14,18.27,14,36.54,14,18.27-14,36.54-14,18.27,14,36.55,14,18.27-14,36.55-14"/>
          <path class="st2" d="M0,161.02c18.27,0,18.27,14,36.54,14s18.27-14,36.54-14,18.27,14,36.54,14,18.27-14,36.54-14,18.27,14,36.53,14,18.27-14,36.54-14,18.27,14,36.54,14,18.27-14,36.54-14,18.27,14,36.54,14,18.27-14,36.54-14,18.27,14,36.55,14,18.27-14,36.55-14"/>
        </g>
        <g>
          <path class="st0" d="M-.6,138.93c18.27,0,18.27,14,36.54,14s18.27-14,36.54-14,18.27,14,36.54,14,18.27-14,36.54-14,18.27,14,36.53,14,18.27-14,36.54-14,18.27,14,36.54,14,18.27-14,36.54-14,18.27,14,36.54,14,18.27-14,36.54-14,18.27,14,36.55,14,18.27-14,36.55-14"/>
          <path class="st2" d="M-.01,148.87c18.27,0,18.27,14,36.54,14s18.27-14,36.54-14,18.27,14,36.54,14,18.27-14,36.54-14,18.27,14,36.53,14,18.27-14,36.54-14,18.27,14,36.54,14,18.27-14,36.54-14,18.27,14,36.54,14,18.27-14,36.54-14,18.27,14,36.55,14,18.27-14,36.55-14"/>
        </g>
        <g>
          <path class="st0" d="M-.62,126.78c18.27,0,18.27,14,36.54,14s18.27-14,36.54-14,18.27,14,36.54,14,18.27-14,36.54-14,18.27,14,36.53,14,18.27-14,36.54-14,18.27,14,36.54,14,18.27-14,36.54-14,18.27,14,36.54,14,18.27-14,36.54-14,18.27,14,36.55,14,18.27-14,36.55-14"/>
          <path class="st2" d="M-.03,136.72c18.27,0,18.27,14,36.54,14s18.27-14,36.54-14,18.27,14,36.54,14,18.27-14,36.54-14,18.27,14,36.53,14,18.27-14,36.54-14,18.27,14,36.54,14,18.27-14,36.54-14,18.27,14,36.54,14,18.27-14,36.54-14,18.27,14,36.55,14,18.27-14,36.55-14"/>
        </g>
        <g>
          <path class="st0" d="M-.63,114.63c18.27,0,18.27,14,36.54,14s18.27-14,36.54-14,18.27,14,36.54,14,18.27-14,36.54-14,18.27,14,36.53,14,18.27-14,36.54-14,18.27,14,36.54,14,18.27-14,36.54-14,18.27,14,36.54,14,18.27-14,36.54-14,18.27,14,36.55,14,18.27-14,36.55-14"/>
          <path class="st2" d="M-.04,124.57c18.27,0,18.27,14,36.54,14s18.27-14,36.54-14,18.27,14,36.54,14,18.27-14,36.54-14,18.27,14,36.53,14,18.27-14,36.54-14,18.27,14,36.54,14,18.27-14,36.54-14,18.27,14,36.54,14,18.27-14,36.54-14,18.27,14,36.55,14,18.27-14,36.55-14"/>
        </g>
        <g>
          <path class="st0" d="M-.64,102.48c18.27,0,18.27,14,36.54,14s18.27-14,36.54-14,18.27,14,36.54,14,18.27-14,36.54-14,18.27,14,36.53,14,18.27-14,36.54-14,18.27,14,36.54,14,18.27-14,36.54-14,18.27,14,36.54,14,18.27-14,36.54-14,18.27,14,36.55,14,18.27-14,36.55-14"/>
          <path class="st2" d="M-.05,112.42c18.27,0,18.27,14,36.54,14s18.27-14,36.54-14,18.27,14,36.54,14,18.27-14,36.54-14,18.27,14,36.53,14,18.27-14,36.54-14,18.27,14,36.54,14,18.27-14,36.54-14,18.27,14,36.54,14,18.27-14,36.54-14,18.27,14,36.55,14,18.27-14,36.55-14"/>
        </g>
        <g>
          <path class="st0" d="M-.66,90.33c18.27,0,18.27,14,36.54,14s18.27-14,36.54-14,18.27,14,36.54,14,18.27-14,36.54-14,18.27,14,36.53,14,18.27-14,36.54-14,18.27,14,36.54,14,18.27-14,36.54-14,18.27,14,36.54,14,18.27-14,36.54-14,18.27,14,36.55,14,18.27-14,36.55-14"/>
          <path class="st2" d="M-.07,100.27c18.27,0,18.27,14,36.54,14s18.27-14,36.54-14,18.27,14,36.54,14,18.27-14,36.54-14,18.27,14,36.53,14,18.27-14,36.54-14,18.27,14,36.54,14,18.27-14,36.54-14,18.27,14,36.54,14,18.27-14,36.54-14,18.27,14,36.55,14,18.27-14,36.55-14"/>
        </g>
        <g>
          <path class="st0" d="M-.67,78.18c18.27,0,18.27,14,36.54,14s18.27-14,36.54-14,18.27,14,36.54,14,18.27-14,36.54-14,18.27,14,36.53,14,18.27-14,36.54-14,18.27,14,36.54,14,18.27-14,36.54-14,18.27,14,36.54,14,18.27-14,36.54-14,18.27,14,36.55,14,18.27-14,36.55-14"/>
          <path class="st2" d="M-.08,88.12c18.27,0,18.27,14,36.54,14s18.27-14,36.54-14,18.27,14,36.54,14,18.27-14,36.54-14,18.27,14,36.53,14,18.27-14,36.54-14,18.27,14,36.54,14,18.27-14,36.54-14,18.27,14,36.54,14,18.27-14,36.54-14,18.27,14,36.55,14,18.27-14,36.55-14"/>
        </g>
        <g>
          <path class="st0" d="M-.68,66.03c18.27,0,18.27,14,36.54,14s18.27-14,36.54-14,18.27,14,36.54,14,18.27-14,36.54-14,18.27,14,36.53,14,18.27-14,36.54-14,18.27,14,36.54,14,18.27-14,36.54-14,18.27,14,36.54,14,18.27-14,36.54-14,18.27,14,36.55,14,18.27-14,36.55-14"/>
          <path class="st2" d="M-.09,75.97c18.27,0,18.27,14,36.54,14s18.27-14,36.54-14,18.27,14,36.54,14,18.27-14,36.54-14,18.27,14,36.53,14,18.27-14,36.54-14,18.27,14,36.54,14,18.27-14,36.54-14,18.27,14,36.54,14,18.27-14,36.54-14,18.27,14,36.55,14,18.27-14,36.55-14"/>
        </g>
        <g>
          <path class="st0" d="M-.7,53.88c18.27,0,18.27,14,36.54,14s18.27-14,36.54-14,18.27,14,36.54,14,18.27-14,36.54-14,18.27,14,36.53,14,18.27-14,36.54-14,18.27,14,36.54,14,18.27-14,36.54-14,18.27,14,36.54,14,18.27-14,36.54-14,18.27,14,36.55,14,18.27-14,36.55-14"/>
          <path class="st2" d="M-.11,63.82c18.27,0,18.27,14,36.54,14s18.27-14,36.54-14,18.27,14,36.54,14,18.27-14,36.54-14,18.27,14,36.53,14,18.27-14,36.54-14,18.27,14,36.54,14,18.27-14,36.54-14,18.27,14,36.54,14,18.27-14,36.54-14,18.27,14,36.55,14,18.27-14,36.55-14"/>
        </g>
        <g>
          <path class="st0" d="M-.71,41.73c18.27,0,18.27,14,36.54,14s18.27-14,36.54-14,18.27,14,36.54,14,18.27-14,36.54-14,18.27,14,36.53,14,18.27-14,36.54-14,18.27,14,36.54,14,18.27-14,36.54-14,18.27,14,36.54,14,18.27-14,36.54-14,18.27,14,36.55,14,18.27-14,36.55-14"/>
          <path class="st2" d="M-.12,51.67c18.27,0,18.27,14,36.54,14s18.27-14,36.54-14,18.27,14,36.54,14,18.27-14,36.54-14,18.27,14,36.53,14,18.27-14,36.54-14,18.27,14,36.54,14,18.27-14,36.54-14,18.27,14,36.54,14,18.27-14,36.54-14,18.27,14,36.55,14,18.27-14,36.55-14"/>
        </g>
        <g>
          <path class="st0" d="M-.72,29.58c18.27,0,18.27,14,36.54,14s18.27-14,36.54-14,18.27,14,36.54,14,18.27-14,36.54-14,18.27,14,36.53,14,18.27-14,36.54-14,18.27,14,36.54,14,18.27-14,36.54-14,18.27,14,36.54,14,18.27-14,36.54-14,18.27,14,36.55,14,18.27-14,36.55-14"/>
          <path class="st2" d="M-.13,39.52c18.27,0,18.27,14,36.54,14s18.27-14,36.54-14,18.27,14,36.54,14,18.27-14,36.54-14,18.27,14,36.53,14,18.27-14,36.54-14,18.27,14,36.54,14,18.27-14,36.54-14,18.27,14,36.54,14,18.27-14,36.54-14,18.27,14,36.55,14,18.27-14,36.55-14"/>
        </g>
        <g>
          <path class="st0" d="M-.74,17.43c18.27,0,18.27,14,36.54,14s18.27-14,36.54-14,18.27,14,36.54,14,18.27-14,36.54-14,18.27,14,36.53,14,18.27-14,36.54-14,18.27,14,36.54,14,18.27-14,36.54-14,18.27,14,36.54,14,18.27-14,36.54-14,18.27,14,36.55,14,18.27-14,36.55-14"/>
          <path class="st2" d="M-.15,27.37c18.27,0,18.27,14,36.54,14s18.27-14,36.54-14,18.27,14,36.54,14,18.27-14,36.54-14,18.27,14,36.53,14,18.27-14,36.54-14,18.27,14,36.54,14,18.27-14,36.54-14,18.27,14,36.54,14,18.27-14,36.54-14,18.27,14,36.55,14,18.27-14,36.55-14"/>
        </g>
        <g>
          <path class="st0" d="M-.75,5.28c18.27,0,18.27,14,36.54,14s18.27-14,36.54-14,18.27,14,36.54,14,18.27-14,36.54-14,18.27,14,36.53,14,18.27-14,36.54-14,18.27,14,36.54,14,18.27-14,36.54-14,18.27,14,36.54,14,18.27-14,36.54-14,18.27,14,36.55,14,18.27-14,36.55-14"/>
          <path class="st2" d="M-.16,15.22c18.27,0,18.27,14,36.54,14s18.27-14,36.54-14,18.27,14,36.54,14,18.27-14,36.54-14,18.27,14,36.53,14,18.27-14,36.54-14,18.27,14,36.54,14,18.27-14,36.54-14,18.27,14,36.54,14,18.27-14,36.54-14,18.27,14,36.55,14,18.27-14,36.55-14"/>
        </g>
      </g>
    </g>
  </g>
  <g id="egg_and_beef">
    <g>
      <path class="st3" d="M160.39,81.89c-3.39,16.42-30.29,27.78-43.12,32.46-16.96,6.19-26.86,4.84-31.91,3.66-4.56-1.06-17.36-4.04-21.27-14.03-3-7.67.44-15.66,3.22-20.5,10.47-18.17,29.9-29.16,43.27-31.92,37.74-7.79,53.41,12.86,49.81,30.33Z"/>
      <path class="st11" d="M139.76,73.81c-1.37,14.24-40.2,26.58-49.17,16.48-3.17-3.56-2.15-9.39-1.83-11.25,1.88-10.82,13.33-16.32,19.09-19.09,5.29-2.55,9.2-4.42,14.31-3.75,9.28,1.22,18.31,10.31,17.61,17.61h0Z"/>
    </g>
    <g>
      <g>
        <path class="st10" d="M285.71,26.61c4.21,2.06,10.75,4.98,19.09,7.59,13.16,4.1,16.46,2.92,20.2,6.99,5.97,6.51.87,13.14,8.4,23.11,2.15,2.85,4.18,4.44,5.94,8.57,1.9,4.47,2.12,8.7,2,11.59-.75,5.67-3.08,7.98-4.38,8.95-4.75,3.54-12.82,1.91-22.92-.08-1.05-.21-5.12-1.04-10.66-1.6-.82-.08-1.48-.14-1.88-.17-3.26.09-8.1.02-13.88-.84-5.11-.76-6.23-1.44-13.14-2.88-8.81-1.83-11.02-1.57-14.23-2.2,0,0-1.72-.37-3.49-.93-4.35-1.38-12.6-4.01-14.65-8.37-2.59-5.53,6.62-9.96,11.47-23.92,4.69-13.5-.1-20.34,5.14-25.53,3.3-3.27,10.33-5.62,27-.26v-.02h0Z"/>
        <path class="st7" d="M285.71,29.61c4.14,1.89,10.72,4.72,19.09,7.59,12.17,4.17,13.94,3.55,16.74,6.54,6.57,7.01,1.97,15.9,9.94,23.54,1.37,1.31,3.19,2.66,4.78,5.5,2.15,3.83,2.44,7.77,2.35,10.46,1.98,9-.62,12.17-1.67,13.16-3.85,3.67-11.96,2.08-22.92-.08-1.05-.21-5.12-1.04-10.66-1.6-.82-.08-1.48-.14-1.88-.17-3.26.09-8.1.02-13.88-.84-5.11-.76-6.23-1.44-13.14-2.88-11.54-2.4-11.75-1.21-17.72-3.14-7.47-2.41-13.11-4.17-14.65-8.37-3.14-8.57,15.07-15.35,17.38-34.27.93-7.6-1.42-11.39,1.64-14.89,4.63-5.31,15.78-3.21,24.59-.55h.01Z"/>
        <path class="st10" d="M289.29,88.8c2.44-.13,5.51,1.36,8,1.81,2.1.38,4.14,1,6.24,1.4,3.15.59,6.21.37,9.41.52,6.48.31,13.98,1.53,20.44.66-.67-1.29-.77-2.82-1.83-3.97-2.82-3.06-9.73-2.38-13.45-2.73-9.18-.86-18.85.88-27.81-1.14,13.18-1.25,26.74,2.17,40.09.88,2.09-.2,3.09-.33.93-1.69-1.88-1.18-5.36-1.52-7.51-1.75-9.83-1.07-19.84.01-29.6.37.56-1.92,1.59-1.44,3.13-1.34,4.78.33,9.71.21,14.56.21,6.92,0,14.76-1.15,19.86-6.22-1.56,1.21-2.94.94-4.78,1.2-4.3.6-8.54,2.04-12.89,2.69-5.01.74-9.93,2.58-15.01,2.57-1.66,0-4.75.31-5.86-.23,6.97-.3,14.88-1.73,21.74-3.72,4.13-1.2,14.7-4.15,15.89-9.27-2.17,2.27-6.93,2.76-9.84,3.89-8.55,3.33-17.53,5.1-26.28,7.73,7.54-3.85,13.79-6.61,18.13-8.43,6.88-2.88,10.01-3.84,11.67-7,2.66-5.07-.6-11.69-2.3-14.65-.54.75-1.27,1.91-1.88,3.44-.62,1.55-.81,2.73-.91,3.21-.78,3.53-5.26,6.04-6.58,6.84-3.18,1.91-8.15,5.96-16.04,15.39.96-.85,1.22-2.08,1.76-3.21,1.89-3.94,4.76-5.95,5.68-6.84,1.87-1.8,9.78-9.92,10.24-19.52.14-3.03-.43-6.85-1.63-7.06-1.74-.3-4.38,7-5.14,9.1-3.7,10.26-2.57,15.32-7.03,19.88-1.59,1.63-3.32,2.51-4.37,2.96.17-1.45,1.39-3.34,1.93-4.83,1.79-4.98,2.16-8.17,3.41-15.76,1.92-11.69,2.57-13.9,1.02-15.15-1.63-1.31-5.13-1.12-6.34.44-.5.65-.43,1.44-.52,1.72-2.56,8.6.37,18.54-.4,27.39-.12,1.32,1.13,12.24-2.13,11.33-.14-2.66.13-5.37-.19-8.03-.7-5.8-.85-8.86-1.19-12.17-1.48-14.21,2.08-19.49-1.36-22.49-1.33-1.16-4.02-2.25-10.11-.44,1.23,2.55,2.88,6.28,4.42,10.94,2.08,6.34,2.98,11.44,4.2,18.57.56,3.26,1.24,7.66,1.84,12.91-3.29-3.65-3.75-10.95-5.11-15.58-2.6-8.83-2.77-9.64-4.32-13.34-4.26-10.2-5.98-8.36-10.39-16.8-.33-.62-1.1-2.14-2.07-2.1-1.31.05-2.38,2.95-2.61,4.67-.74,5.62,6.31,10.32,8.65,13.24,7.57,9.41,6.09,22.74,13.25,32.07-2.49-4.87-4.25-10.06-6.56-15.01-1.22-2.6-2.57-5.13-3.91-7.67-1.56-2.97-2.81-7.07-5.15-9.56-2-2.14-6.74-5.63-7.68-1.65-1.37,5.78,4.28,13.02,7.09,17.31,3.4,5.2,7.06,12.32,11.86,16.38-2.15-5.54-7.05-11.36-11.2-15.67-2.48-2.58-16.94-12.23-18.49-6.97-1.23,4.16,6.18,8.64,8.38,10.5,5.59,4.71,11.14,10.66,17.67,14.06-6.08-8.05-16.49-8.5-25.54-8.04-3.48.18-3.6,1.15-1.37,3.55,6.09,6.55,17.43,3.67,24.88,7.38-1.79.31-3.24-.55-4.91-1.07-2.69-.83-5.39-1.04-8.15-1.5-2.7-.46-8.08-1.84-10.47-.05,6.52.66,12.25,4.24,18.93,4.78,5,.4,10.38.91,15.58.69l.03-.03h0Z"/>
      </g>
      <g>
        <g>
          <path class="st10" d="M311.23,51.69c6.08,4.12,10.95,7.5,14.24,9.8,7.82,5.48,7.95,5.74,11.67,8.17,8.19,5.35,8.69,4.86,10.04,6.77,2.44,3.46,1.39,5.96,1.57,19.14.15,11.69,1.01,12.46-.4,14.47-4.99,7.11-21.04,5.16-24.7,4.45-.84-.16-4.98-1.03-10.66-1.6-.82-.08-1.48-.14-1.88-.17-3.26.09-8.1.02-13.88-.84-5.11-.76-6.23-1.44-13.14-2.88-11.54-2.4-11.75-1.21-17.72-3.14-3.74-1.21-9.57-3.17-14.65-8.37-2.65-2.72-5.52-5.66-5.61-9.68-.11-5.16,4.39-10.25,11.1-13.07,5.63-1.29,13.26-4.04,17.35-10.72,3.66-5.98,1.78-10.69,4.94-14.26,3.09-3.5,10.79-5.63,31.74,1.94h-.01Z"/>
          <path class="st10" d="M289.64,49.88s12.82-2.48,33.48,14.78c12.63,10.56,19.11,10.16,21.75,13.76,2.68,3.64.14,6.88,1,15.54.45,4.52,1.52,8.13,2.35,10.46,1.52,7.43-.67,10.5-1.67,11.59-4.63,5.06-16.08,2.83-22.92,1.49-1-.2-5.08-1.04-10.66-1.6-.82-.08-1.48-.14-1.88-.17-3.26.09-8.1.02-13.88-.84-5.11-.76-6.23-1.44-13.14-2.88-11.54-2.4-11.75-1.21-17.72-3.14-3.74-1.21-9.57-3.17-14.65-8.37-2.65-2.72-5.52-5.66-5.61-9.68-.11-5.16,4.39-10.25,11.1-13.07,17.78-4.62,22.93-10.21,23.8-14.91.63-3.41-.67-8.12,2.35-10.99,1.81-1.71,4.35-2,6.28-1.96h.02Z"/>
          <path class="st10" d="M254.75,97.21c3.09,2.35,6.1,2.99,8.54,3.6,2.49.61,3.93,1.04,5.07,1.43.55.19,2.22.74,3.69,1.39,3.55,1.57,5.87,3.61,6.45,4.08,4.65,3.77,15.16,1.78,28.75,3.24,11.91,1.28,14.06,3.9,25.36,3.55,5.11-.16,11.19-.9,11.18-1.57,0-.71-6.79-1.26-9.81-1.5-8.92-.73-11.03-.02-15.64-1.21-2.25-.58-5.64-1.74-9.53-4.38-2.62-2.78-2.94-3.67-2.72-3.96.6-.8,5.15,3.11,12.84,4.43,3.16.55,6.3.56,7.55.57,2.55.01,3.83-.16,7.62-.35,2.9-.14,5.44-.2,7.51-.22-3.5-3.72-10.28-2.68-14.85-3.76-2.94-.69-16.34-5.39-16.4-8.59,3.41,1.88,8.59,4.25,15.23,5.45,8.48,1.53,18.88,1.07,19.26-1.05.27-1.51-4.47-4.4-9.34-4.9-5.79-.6-8.02,2.56-12.85,1.73-2.2-.38-5.41-1.67-8.86-6.23-.03-.14-.04-.27-.04-.41.79.44,12.9,6.98,21.34,1.14,4.62-3.2,6.49-9.49,5.54-10.24-.82-.65-3.54,2.89-9.78,4.99-.75.25-6.5,2.19-7.51.59-.95-1.51,3.63-4.15,3.75-9.04.09-3.78-2.52-7.4-3.98-7.2-1.4.19-.95,3.78-3.74,7.41-1.69,2.21-3.83,3.45-5.42,4.17-.09-4.75-.69-8.59-1.25-11.26-1.56-7.45-3.23-8.17-3.9-8.33-.94-.21-1.22.39-3.28.84-3.58.77-5.58-.47-5.97.19-.87,1.46,8.84,7.77,10.57,14.65.24.95,1.01,3.99,0,4.57-.15.08-.33.11-.57.08-.86-.14-2.9-4.3-3.16-4.91-.91-2.14-1.6-3.59-2.63-4.87-.44-.54-.57-.6-3.77-3.25-2.87-2.38-3.13-2.64-3.7-2.65-2.01-.04-4.61,3.03-4.48,5.78.18,3.73,7.65,2.83,13.06,9.47,1.51,1.85,2.84,4.21,2.24,4.89-.29.33-1.23.09-3.14-.11-.63-.07-1.34-.19-2.35-.45-3.53-.91-6.03-2.22-7.33-2.97-3.08-1.79-5.93-3.44-6.6-6.28-.21-.87-.29-2.21,1.56-6.11,3.8-8.02,8.37-11.28,7.17-13.66-.46-.91-1.75-1.66-2.8-1.96,0,0-1.18-.33-2.48-.07-3.12.64-7,7.65-7.27,15.21-.08,2.2-.19,7.39,3.1,12.33.98,1.46,3.02,4.17,6.51,6.12.77.43,6.7,2.19,6.51,3.03-.35,1.6-3.25.29-4.05.07-4.22-1.16-6.57-2.48-8.86-6.3-1.8-3.01-4.27-8.42-8.47-8.71-5.6-.39,1.74,7.52,3.37,8.76,2.8,2.13,5.94,3.78,8.8,5.78,1.05.73,2.22,1.47,2.41,2.75-4.08,1.77-10.4-4.48-13.05-7.06-4-3.89-8.48-8.66-14.69-8.09-.58,2.59,3.57,5.23,5.23,6.61.76.64,1.43,1.16,6.43,4.19,4.21,2.54,6.36,3.84,8.65,5.07,3.91,2.1,5.91,3.16,8.34,3.75,4.04.99,6.67.44,6.68.63.02.38-11.3,1.72-19.76-.8-2.16-.64-3.26-1.28-3.76-1.58-3.31-2.04-3.7-4.31-6.31-6.2-1.25-.91-3.31-1.94-6.68-2.05,1.41,2.41,2.95,3.94,4.07,4.88,4.31,3.61,8.27,3.37,14.65,7.78,1,.69,1.78,1.3,2.27,1.7-2.42.42-4.85-1.54-7.08-2.28-6.23-2.07-9.9-1.83-14.17-4.64-1.57-1.03-3.27-2.4-3.29-4.1,0-.88.45-1.03.63-2.29.29-2.05-.75-2.74-.78-4.64-.04-2.61,1.87-3.82,1.4-4.42-.64-.81-5.67.45-7.05,3.74-1.73,4.1,2.94,9.58,2.3,10-.7.46-5.43-6.65-6.95-5.93-.79.37-.49,2.75,0,5.04.84,1.35,2.24,3.24,4.42,4.9h.05Z"/>
        </g>
        <g>
          <path class="st10" d="M311.23,51.69c6.08,4.12,10.95,7.5,14.24,9.8,7.82,5.48,7.95,5.74,11.67,8.17,8.19,5.35,8.69,4.86,10.04,6.77,2.44,3.46,1.39,5.96,1.57,19.14.15,11.69,1.01,12.46-.4,14.47-4.99,7.11-21.04,5.16-24.7,4.45-.84-.16-4.98-1.03-10.66-1.6-.82-.08-1.48-.14-1.88-.17-3.26.09-8.1.02-13.88-.84-5.11-.76-6.23-1.44-13.14-2.88-11.54-2.4-11.75-1.21-17.72-3.14-3.74-1.21-9.57-3.17-14.65-8.37-2.65-2.72-5.52-5.66-5.61-9.68-.11-5.16,4.39-10.25,11.1-13.07,5.63-1.29,13.26-4.04,17.35-10.72,3.66-5.98,1.78-10.69,4.94-14.26,3.09-3.5,10.79-5.63,31.74,1.94h-.01Z"/>
          <path class="st7" d="M289.64,49.88s12.82-2.48,33.48,14.78c12.63,10.56,19.11,10.16,21.75,13.76,2.68,3.64.14,6.88,1,15.54.45,4.52,1.52,8.13,2.35,10.46,1.52,7.43-.67,10.5-1.67,11.59-4.63,5.06-16.08,2.83-22.92,1.49-1-.2-5.08-1.04-10.66-1.6-.82-.08-1.48-.14-1.88-.17-3.26.09-8.1.02-13.88-.84-5.11-.76-6.23-1.44-13.14-2.88-11.54-2.4-11.75-1.21-17.72-3.14-3.74-1.21-9.57-3.17-14.65-8.37-2.65-2.72-5.52-5.66-5.61-9.68-.11-5.16,4.39-10.25,11.1-13.07,17.78-4.62,22.93-10.21,23.8-14.91.63-3.41-.67-8.12,2.35-10.99,1.81-1.71,4.35-2,6.28-1.96h.02Z"/>
          <path class="st10" d="M254.75,97.21c3.09,2.35,6.1,2.99,8.54,3.6,2.49.61,3.93,1.04,5.07,1.43.55.19,2.22.74,3.69,1.39,3.55,1.57,5.87,3.61,6.45,4.08,4.65,3.77,15.16,1.78,28.75,3.24,11.91,1.28,14.06,3.9,25.36,3.55,5.11-.16,11.19-.9,11.18-1.57,0-.71-6.79-1.26-9.81-1.5-8.92-.73-11.03-.02-15.64-1.21-2.25-.58-5.64-1.74-9.53-4.38-2.62-2.78-2.94-3.67-2.72-3.96.6-.8,5.15,3.11,12.84,4.43,3.16.55,6.3.56,7.55.57,2.55.01,3.83-.16,7.62-.35,2.9-.14,5.44-.2,7.51-.22-3.5-3.72-10.28-2.68-14.85-3.76-2.94-.69-16.34-5.39-16.4-8.59,3.41,1.88,8.59,4.25,15.23,5.45,8.48,1.53,18.88,1.07,19.26-1.05.27-1.51-4.47-4.4-9.34-4.9-5.79-.6-8.02,2.56-12.85,1.73-2.2-.38-5.41-1.67-8.86-6.23-.03-.14-.04-.27-.04-.41.79.44,12.9,6.98,21.34,1.14,4.62-3.2,6.49-9.49,5.54-10.24-.82-.65-3.54,2.89-9.78,4.99-.75.25-6.5,2.19-7.51.59-.95-1.51,3.63-4.15,3.75-9.04.09-3.78-2.52-7.4-3.98-7.2-1.4.19-.95,3.78-3.74,7.41-1.69,2.21-3.83,3.45-5.42,4.17-.09-4.75-.69-8.59-1.25-11.26-1.56-7.45-3.23-8.17-3.9-8.33-.94-.21-1.22.39-3.28.84-3.58.77-5.58-.47-5.97.19-.87,1.46,8.84,7.77,10.57,14.65.24.95,1.01,3.99,0,4.57-.15.08-.33.11-.57.08-.86-.14-2.9-4.3-3.16-4.91-.91-2.14-1.6-3.59-2.63-4.87-.44-.54-.57-.6-3.77-3.25-2.87-2.38-3.13-2.64-3.7-2.65-2.01-.04-4.61,3.03-4.48,5.78.18,3.73,7.65,2.83,13.06,9.47,1.51,1.85,2.84,4.21,2.24,4.89-.29.33-1.23.09-3.14-.11-.63-.07-1.34-.19-2.35-.45-3.53-.91-6.03-2.22-7.33-2.97-3.08-1.79-5.93-3.44-6.6-6.28-.21-.87-.29-2.21,1.56-6.11,3.8-8.02,8.37-11.28,7.17-13.66-.46-.91-1.75-1.66-2.8-1.96,0,0-1.18-.33-2.48-.07-3.12.64-7,7.65-7.27,15.21-.08,2.2-.19,7.39,3.1,12.33.98,1.46,3.02,4.17,6.51,6.12.77.43,6.7,2.19,6.51,3.03-.35,1.6-3.25.29-4.05.07-4.22-1.16-6.57-2.48-8.86-6.3-1.8-3.01-4.27-8.42-8.47-8.71-5.6-.39,1.74,7.52,3.37,8.76,2.8,2.13,5.94,3.78,8.8,5.78,1.05.73,2.22,1.47,2.41,2.75-4.08,1.77-10.4-4.48-13.05-7.06-4-3.89-8.48-8.66-14.69-8.09-.58,2.59,3.57,5.23,5.23,6.61.76.64,1.43,1.16,6.43,4.19,4.21,2.54,6.36,3.84,8.65,5.07,3.91,2.1,5.91,3.16,8.34,3.75,4.04.99,6.67.44,6.68.63.02.38-11.3,1.72-19.76-.8-2.16-.64-3.26-1.28-3.76-1.58-3.31-2.04-3.7-4.31-6.31-6.2-1.25-.91-3.31-1.94-6.68-2.05,1.41,2.41,2.95,3.94,4.07,4.88,4.31,3.61,8.27,3.37,14.65,7.78,1,.69,1.78,1.3,2.27,1.7-2.42.42-4.85-1.54-7.08-2.28-6.23-2.07-9.9-1.83-14.17-4.64-1.57-1.03-3.27-2.4-3.29-4.1,0-.88.45-1.03.63-2.29.29-2.05-.75-2.74-.78-4.64-.04-2.61,1.87-3.82,1.4-4.42-.64-.81-5.67.45-7.05,3.74-1.73,4.1,2.94,9.58,2.3,10-.7.46-5.43-6.65-6.95-5.93-.79.37-.49,2.75,0,5.04.84,1.35,2.24,3.24,4.42,4.9h.05Z"/>
        </g>
      </g>
    </g>
  </g>
</svg>